<mxfile host="app.diagrams.net" agent="Mozilla/5.0 (Windows NT 10.0; Win64; x64) AppleWebKit/537.36 (KHTML, like Gecko) Chrome/140.0.0.0 Safari/537.36 Edg/140.0.0.0" version="28.2.5">
  <diagram name="Seite-1" id="jw7g62NoOhNAYAWx3Ehq">
    <mxGraphModel dx="1273" dy="1709" grid="1" gridSize="10" guides="1" tooltips="1" connect="1" arrows="1" fold="1" page="1" pageScale="1" pageWidth="827" pageHeight="1169" math="0" shadow="0">
      <root>
        <mxCell id="0" />
        <mxCell id="1" parent="0" />
        <mxCell id="2YuHJ0yPQVnFZAZd1jHV-4" style="edgeStyle=orthogonalEdgeStyle;rounded=0;orthogonalLoop=1;jettySize=auto;html=1;shadow=1;" parent="1" source="2YuHJ0yPQVnFZAZd1jHV-15" target="2YuHJ0yPQVnFZAZd1jHV-2" edge="1">
          <mxGeometry relative="1" as="geometry">
            <Array as="points">
              <mxPoint x="480" y="270" />
              <mxPoint x="480" y="270" />
            </Array>
          </mxGeometry>
        </mxCell>
        <mxCell id="2YuHJ0yPQVnFZAZd1jHV-16" style="edgeStyle=orthogonalEdgeStyle;rounded=0;orthogonalLoop=1;jettySize=auto;html=1;shadow=1;" parent="1" source="2YuHJ0yPQVnFZAZd1jHV-1" target="2YuHJ0yPQVnFZAZd1jHV-7" edge="1">
          <mxGeometry relative="1" as="geometry">
            <Array as="points">
              <mxPoint x="320" y="80" />
              <mxPoint x="320" y="80" />
            </Array>
          </mxGeometry>
        </mxCell>
        <mxCell id="2YuHJ0yPQVnFZAZd1jHV-32" style="edgeStyle=orthogonalEdgeStyle;rounded=0;orthogonalLoop=1;jettySize=auto;html=1;dashed=1;dashPattern=8 8;" parent="1" source="2YuHJ0yPQVnFZAZd1jHV-1" target="2YuHJ0yPQVnFZAZd1jHV-31" edge="1">
          <mxGeometry relative="1" as="geometry">
            <Array as="points">
              <mxPoint x="310" y="310" />
            </Array>
          </mxGeometry>
        </mxCell>
        <mxCell id="2YuHJ0yPQVnFZAZd1jHV-1" value="AI Extraction" style="whiteSpace=wrap;html=1;shadow=1;strokeWidth=2;" parent="1" vertex="1">
          <mxGeometry x="240" y="150" width="140" height="60" as="geometry" />
        </mxCell>
        <mxCell id="2YuHJ0yPQVnFZAZd1jHV-25" style="edgeStyle=orthogonalEdgeStyle;rounded=0;orthogonalLoop=1;jettySize=auto;html=1;shadow=1;" parent="1" source="2YuHJ0yPQVnFZAZd1jHV-2" target="2YuHJ0yPQVnFZAZd1jHV-15" edge="1">
          <mxGeometry relative="1" as="geometry">
            <Array as="points">
              <mxPoint x="450" y="270" />
              <mxPoint x="450" y="270" />
            </Array>
          </mxGeometry>
        </mxCell>
        <mxCell id="2YuHJ0yPQVnFZAZd1jHV-2" value="AI Service" style="whiteSpace=wrap;html=1;shadow=1;strokeWidth=2;" parent="1" vertex="1">
          <mxGeometry x="400" y="320" width="120" height="60" as="geometry" />
        </mxCell>
        <mxCell id="2YuHJ0yPQVnFZAZd1jHV-29" style="edgeStyle=orthogonalEdgeStyle;rounded=0;orthogonalLoop=1;jettySize=auto;html=1;shadow=1;" parent="1" source="2YuHJ0yPQVnFZAZd1jHV-5" target="2YuHJ0yPQVnFZAZd1jHV-2" edge="1">
          <mxGeometry relative="1" as="geometry">
            <Array as="points">
              <mxPoint x="450" y="420" />
              <mxPoint x="450" y="420" />
            </Array>
          </mxGeometry>
        </mxCell>
        <mxCell id="2YuHJ0yPQVnFZAZd1jHV-5" value="Vector DB" style="strokeWidth=2;html=1;shape=mxgraph.flowchart.database;whiteSpace=wrap;shadow=1;" parent="1" vertex="1">
          <mxGeometry x="430" y="460" width="60" height="60" as="geometry" />
        </mxCell>
        <mxCell id="2YuHJ0yPQVnFZAZd1jHV-6" style="edgeStyle=orthogonalEdgeStyle;rounded=0;orthogonalLoop=1;jettySize=auto;html=1;shadow=1;" parent="1" source="2YuHJ0yPQVnFZAZd1jHV-2" edge="1">
          <mxGeometry relative="1" as="geometry">
            <mxPoint x="480" y="460" as="targetPoint" />
            <Array as="points">
              <mxPoint x="480" y="460" />
            </Array>
          </mxGeometry>
        </mxCell>
        <mxCell id="2YuHJ0yPQVnFZAZd1jHV-10" style="edgeStyle=orthogonalEdgeStyle;rounded=0;orthogonalLoop=1;jettySize=auto;html=1;shadow=1;" parent="1" source="2YuHJ0yPQVnFZAZd1jHV-7" target="2YuHJ0yPQVnFZAZd1jHV-1" edge="1">
          <mxGeometry relative="1" as="geometry">
            <Array as="points">
              <mxPoint x="280" y="90" />
              <mxPoint x="280" y="90" />
            </Array>
          </mxGeometry>
        </mxCell>
        <mxCell id="2YuHJ0yPQVnFZAZd1jHV-18" style="edgeStyle=orthogonalEdgeStyle;rounded=0;orthogonalLoop=1;jettySize=auto;html=1;shadow=1;" parent="1" source="2YuHJ0yPQVnFZAZd1jHV-7" target="2YuHJ0yPQVnFZAZd1jHV-15" edge="1">
          <mxGeometry relative="1" as="geometry">
            <Array as="points">
              <mxPoint x="480" y="-20" />
            </Array>
          </mxGeometry>
        </mxCell>
        <mxCell id="2YuHJ0yPQVnFZAZd1jHV-7" value="Extraction Service" style="whiteSpace=wrap;html=1;shadow=1;strokeWidth=2;" parent="1" vertex="1">
          <mxGeometry x="240" y="-40" width="120" height="60" as="geometry" />
        </mxCell>
        <mxCell id="2YuHJ0yPQVnFZAZd1jHV-9" style="edgeStyle=orthogonalEdgeStyle;rounded=0;orthogonalLoop=1;jettySize=auto;html=1;dashed=1;strokeColor=default;align=center;verticalAlign=middle;fontFamily=Helvetica;fontSize=11;fontColor=default;labelBackgroundColor=default;endArrow=none;endFill=0;shadow=1;" parent="1" source="2YuHJ0yPQVnFZAZd1jHV-8" edge="1">
          <mxGeometry relative="1" as="geometry">
            <mxPoint x="300" y="-120" as="targetPoint" />
            <Array as="points">
              <mxPoint x="280" y="-120" />
            </Array>
          </mxGeometry>
        </mxCell>
        <mxCell id="2YuHJ0yPQVnFZAZd1jHV-8" value="URL" style="whiteSpace=wrap;html=1;shape=mxgraph.basic.document;shadow=1;" parent="1" vertex="1">
          <mxGeometry x="70" y="-170" width="100" height="100" as="geometry" />
        </mxCell>
        <mxCell id="2YuHJ0yPQVnFZAZd1jHV-12" style="edgeStyle=orthogonalEdgeStyle;rounded=0;orthogonalLoop=1;jettySize=auto;html=1;dashed=1;strokeColor=default;align=center;verticalAlign=middle;fontFamily=Helvetica;fontSize=11;fontColor=default;labelBackgroundColor=default;endArrow=none;startArrow=none;startFill=0;endFill=0;shadow=1;" parent="1" source="2YuHJ0yPQVnFZAZd1jHV-11" edge="1">
          <mxGeometry relative="1" as="geometry">
            <mxPoint x="280" y="90" as="targetPoint" />
            <Array as="points">
              <mxPoint x="280" y="80" />
            </Array>
          </mxGeometry>
        </mxCell>
        <mxCell id="2YuHJ0yPQVnFZAZd1jHV-11" value="HTML" style="whiteSpace=wrap;html=1;shape=mxgraph.basic.document;shadow=1;" parent="1" vertex="1">
          <mxGeometry x="70" y="30" width="100" height="100" as="geometry" />
        </mxCell>
        <mxCell id="2YuHJ0yPQVnFZAZd1jHV-14" style="edgeStyle=orthogonalEdgeStyle;rounded=0;orthogonalLoop=1;jettySize=auto;html=1;dashed=1;strokeColor=default;align=center;verticalAlign=middle;fontFamily=Helvetica;fontSize=11;fontColor=default;labelBackgroundColor=default;endArrow=none;endFill=0;shadow=1;" parent="1" source="2YuHJ0yPQVnFZAZd1jHV-13" edge="1">
          <mxGeometry relative="1" as="geometry">
            <mxPoint x="480" y="420" as="targetPoint" />
            <Array as="points">
              <mxPoint x="645" y="420" />
            </Array>
          </mxGeometry>
        </mxCell>
        <mxCell id="2YuHJ0yPQVnFZAZd1jHV-13" value="vectorized&lt;br&gt;query" style="whiteSpace=wrap;html=1;shape=mxgraph.basic.document;shadow=1;" parent="1" vertex="1">
          <mxGeometry x="595" y="300" width="100" height="100" as="geometry" />
        </mxCell>
        <mxCell id="2YuHJ0yPQVnFZAZd1jHV-30" style="edgeStyle=orthogonalEdgeStyle;rounded=0;orthogonalLoop=1;jettySize=auto;html=1;shadow=1;" parent="1" source="2YuHJ0yPQVnFZAZd1jHV-15" target="2YuHJ0yPQVnFZAZd1jHV-7" edge="1">
          <mxGeometry relative="1" as="geometry">
            <Array as="points">
              <mxPoint x="450" />
            </Array>
          </mxGeometry>
        </mxCell>
        <mxCell id="2YuHJ0yPQVnFZAZd1jHV-33" style="edgeStyle=orthogonalEdgeStyle;rounded=0;orthogonalLoop=1;jettySize=auto;html=1;dashed=1;dashPattern=8 8;" parent="1" source="2YuHJ0yPQVnFZAZd1jHV-15" target="2YuHJ0yPQVnFZAZd1jHV-31" edge="1">
          <mxGeometry relative="1" as="geometry">
            <Array as="points">
              <mxPoint x="420" y="260" />
              <mxPoint x="330" y="260" />
              <mxPoint x="330" y="330" />
            </Array>
          </mxGeometry>
        </mxCell>
        <mxCell id="2YuHJ0yPQVnFZAZd1jHV-15" value="AI Query" style="whiteSpace=wrap;html=1;shadow=1;strokeWidth=2;" parent="1" vertex="1">
          <mxGeometry x="380" y="150" width="140" height="60" as="geometry" />
        </mxCell>
        <mxCell id="2YuHJ0yPQVnFZAZd1jHV-17" value="orchestration&lt;br&gt;caching" style="ellipse;whiteSpace=wrap;html=1;shadow=1;" parent="1" vertex="1">
          <mxGeometry x="720" y="-50" width="130" height="80" as="geometry" />
        </mxCell>
        <mxCell id="2YuHJ0yPQVnFZAZd1jHV-20" style="edgeStyle=orthogonalEdgeStyle;rounded=0;orthogonalLoop=1;jettySize=auto;html=1;dashed=1;strokeColor=default;align=center;verticalAlign=middle;fontFamily=Helvetica;fontSize=11;fontColor=default;labelBackgroundColor=default;endArrow=none;endFill=0;shadow=1;" parent="1" source="2YuHJ0yPQVnFZAZd1jHV-19" edge="1">
          <mxGeometry relative="1" as="geometry">
            <mxPoint x="320" y="80" as="targetPoint" />
            <Array as="points">
              <mxPoint x="645" y="80" />
              <mxPoint x="320" y="80" />
            </Array>
          </mxGeometry>
        </mxCell>
        <mxCell id="2YuHJ0yPQVnFZAZd1jHV-21" style="edgeStyle=orthogonalEdgeStyle;rounded=0;orthogonalLoop=1;jettySize=auto;html=1;dashed=1;strokeColor=default;align=center;verticalAlign=middle;fontFamily=Helvetica;fontSize=11;fontColor=default;labelBackgroundColor=default;endArrow=none;endFill=0;shadow=1;" parent="1" source="2YuHJ0yPQVnFZAZd1jHV-19" edge="1">
          <mxGeometry relative="1" as="geometry">
            <mxPoint x="480" y="110" as="targetPoint" />
            <Array as="points">
              <mxPoint x="620" y="110" />
            </Array>
          </mxGeometry>
        </mxCell>
        <mxCell id="2YuHJ0yPQVnFZAZd1jHV-22" style="edgeStyle=orthogonalEdgeStyle;rounded=0;orthogonalLoop=1;jettySize=auto;html=1;dashed=1;strokeColor=default;align=center;verticalAlign=middle;fontFamily=Helvetica;fontSize=11;fontColor=default;labelBackgroundColor=default;endArrow=none;endFill=0;shadow=1;" parent="1" source="2YuHJ0yPQVnFZAZd1jHV-19" edge="1">
          <mxGeometry relative="1" as="geometry">
            <mxPoint x="480" y="260" as="targetPoint" />
            <Array as="points">
              <mxPoint x="645" y="260" />
            </Array>
          </mxGeometry>
        </mxCell>
        <mxCell id="2YuHJ0yPQVnFZAZd1jHV-19" value="structured data" style="whiteSpace=wrap;html=1;shape=mxgraph.basic.document;shadow=1;" parent="1" vertex="1">
          <mxGeometry x="600" y="150" width="90" height="80" as="geometry" />
        </mxCell>
        <mxCell id="2YuHJ0yPQVnFZAZd1jHV-26" style="edgeStyle=orthogonalEdgeStyle;rounded=0;orthogonalLoop=1;jettySize=auto;html=1;dashed=1;strokeColor=default;align=center;verticalAlign=middle;fontFamily=Helvetica;fontSize=11;fontColor=default;labelBackgroundColor=default;endArrow=none;endFill=0;shadow=1;" parent="1" source="2YuHJ0yPQVnFZAZd1jHV-24" edge="1">
          <mxGeometry relative="1" as="geometry">
            <mxPoint x="450" y="260" as="targetPoint" />
            <Array as="points">
              <mxPoint x="450" y="280" />
            </Array>
          </mxGeometry>
        </mxCell>
        <mxCell id="2YuHJ0yPQVnFZAZd1jHV-24" value="result" style="whiteSpace=wrap;html=1;shape=mxgraph.basic.document;shadow=1;" parent="1" vertex="1">
          <mxGeometry x="790" y="210" width="100" height="100" as="geometry" />
        </mxCell>
        <mxCell id="2YuHJ0yPQVnFZAZd1jHV-28" style="edgeStyle=orthogonalEdgeStyle;rounded=0;orthogonalLoop=1;jettySize=auto;html=1;entryX=0.5;entryY=0;entryDx=0;entryDy=0;shadow=1;" parent="1" source="2YuHJ0yPQVnFZAZd1jHV-27" target="2YuHJ0yPQVnFZAZd1jHV-7" edge="1">
          <mxGeometry relative="1" as="geometry" />
        </mxCell>
        <mxCell id="2YuHJ0yPQVnFZAZd1jHV-27" value="Actor" style="shape=umlActor;verticalLabelPosition=bottom;verticalAlign=top;html=1;outlineConnect=0;shadow=1;" parent="1" vertex="1">
          <mxGeometry x="285" y="-250" width="30" height="60" as="geometry" />
        </mxCell>
        <mxCell id="2YuHJ0yPQVnFZAZd1jHV-31" value="" style="sketch=0;points=[[0,0,0],[0.25,0,0],[0.5,0,0],[0.75,0,0],[1,0,0],[0,1,0],[0.25,1,0],[0.5,1,0],[0.75,1,0],[1,1,0],[0,0.25,0],[0,0.5,0],[0,0.75,0],[1,0.25,0],[1,0.5,0],[1,0.75,0]];outlineConnect=0;fontColor=#232F3E;fillColor=#01A88D;strokeColor=#ffffff;dashed=0;verticalLabelPosition=bottom;verticalAlign=top;align=center;html=1;fontSize=12;fontStyle=0;aspect=fixed;shape=mxgraph.aws4.resourceIcon;resIcon=mxgraph.aws4.bedrock;shadow=1;" parent="1" vertex="1">
          <mxGeometry x="81" y="280" width="78" height="78" as="geometry" />
        </mxCell>
      </root>
    </mxGraphModel>
  </diagram>
</mxfile>
